<mxfile host="app.diagrams.net" modified="2023-02-07T01:14:09.346Z" agent="5.0 (Windows NT 10.0; Win64; x64) AppleWebKit/537.36 (KHTML, like Gecko) Chrome/109.0.0.0 Safari/537.36" etag="K_a3AEF1R5pZUKf2agWN" version="20.8.17" type="github">
  <diagram name="페이지-1" id="JeLeqDXDV6BQjc2NN4RH">
    <mxGraphModel dx="1262" dy="737" grid="1" gridSize="10" guides="1" tooltips="1" connect="1" arrows="1" fold="1" page="1" pageScale="1" pageWidth="827" pageHeight="1169" math="0" shadow="0">
      <root>
        <mxCell id="0" />
        <mxCell id="1" parent="0" />
        <mxCell id="7Ni8dyz0HGYUbt5gnj2a-1" value="DB" style="shape=cylinder3;whiteSpace=wrap;html=1;boundedLbl=1;backgroundOutline=1;size=15;" vertex="1" parent="1">
          <mxGeometry x="740" y="240" width="60" height="80" as="geometry" />
        </mxCell>
        <mxCell id="7Ni8dyz0HGYUbt5gnj2a-12" value="" style="edgeStyle=orthogonalEdgeStyle;rounded=0;orthogonalLoop=1;jettySize=auto;html=1;" edge="1" parent="1" source="7Ni8dyz0HGYUbt5gnj2a-2" target="7Ni8dyz0HGYUbt5gnj2a-1">
          <mxGeometry relative="1" as="geometry" />
        </mxCell>
        <mxCell id="7Ni8dyz0HGYUbt5gnj2a-2" value="DAO" style="whiteSpace=wrap;html=1;aspect=fixed;" vertex="1" parent="1">
          <mxGeometry x="600" y="240" width="80" height="80" as="geometry" />
        </mxCell>
        <mxCell id="7Ni8dyz0HGYUbt5gnj2a-11" value="" style="edgeStyle=orthogonalEdgeStyle;rounded=0;orthogonalLoop=1;jettySize=auto;html=1;" edge="1" parent="1" source="7Ni8dyz0HGYUbt5gnj2a-3" target="7Ni8dyz0HGYUbt5gnj2a-2">
          <mxGeometry relative="1" as="geometry" />
        </mxCell>
        <mxCell id="7Ni8dyz0HGYUbt5gnj2a-3" value="Service" style="whiteSpace=wrap;html=1;aspect=fixed;" vertex="1" parent="1">
          <mxGeometry x="450" y="240" width="80" height="80" as="geometry" />
        </mxCell>
        <mxCell id="7Ni8dyz0HGYUbt5gnj2a-10" value="" style="edgeStyle=orthogonalEdgeStyle;rounded=0;orthogonalLoop=1;jettySize=auto;html=1;" edge="1" parent="1" source="7Ni8dyz0HGYUbt5gnj2a-4" target="7Ni8dyz0HGYUbt5gnj2a-3">
          <mxGeometry relative="1" as="geometry" />
        </mxCell>
        <mxCell id="7Ni8dyz0HGYUbt5gnj2a-4" value="Controller" style="whiteSpace=wrap;html=1;aspect=fixed;" vertex="1" parent="1">
          <mxGeometry x="310" y="240" width="80" height="80" as="geometry" />
        </mxCell>
        <mxCell id="7Ni8dyz0HGYUbt5gnj2a-9" value="" style="edgeStyle=orthogonalEdgeStyle;rounded=0;orthogonalLoop=1;jettySize=auto;html=1;" edge="1" parent="1" source="7Ni8dyz0HGYUbt5gnj2a-5" target="7Ni8dyz0HGYUbt5gnj2a-4">
          <mxGeometry relative="1" as="geometry" />
        </mxCell>
        <mxCell id="7Ni8dyz0HGYUbt5gnj2a-25" style="edgeStyle=orthogonalEdgeStyle;rounded=0;orthogonalLoop=1;jettySize=auto;html=1;exitX=0.75;exitY=1;exitDx=0;exitDy=0;startArrow=none;" edge="1" parent="1" source="7Ni8dyz0HGYUbt5gnj2a-26" target="7Ni8dyz0HGYUbt5gnj2a-7">
          <mxGeometry relative="1" as="geometry" />
        </mxCell>
        <mxCell id="7Ni8dyz0HGYUbt5gnj2a-29" style="edgeStyle=orthogonalEdgeStyle;rounded=0;orthogonalLoop=1;jettySize=auto;html=1;exitX=0.25;exitY=1;exitDx=0;exitDy=0;entryX=0.25;entryY=0;entryDx=0;entryDy=0;startArrow=none;" edge="1" parent="1" source="7Ni8dyz0HGYUbt5gnj2a-31" target="7Ni8dyz0HGYUbt5gnj2a-6">
          <mxGeometry relative="1" as="geometry" />
        </mxCell>
        <mxCell id="7Ni8dyz0HGYUbt5gnj2a-5" value="DS&lt;br&gt;Dispatcher&lt;br&gt;Servlet" style="whiteSpace=wrap;html=1;aspect=fixed;" vertex="1" parent="1">
          <mxGeometry x="130" y="240" width="80" height="80" as="geometry" />
        </mxCell>
        <mxCell id="7Ni8dyz0HGYUbt5gnj2a-30" style="edgeStyle=orthogonalEdgeStyle;rounded=0;orthogonalLoop=1;jettySize=auto;html=1;exitX=0;exitY=0;exitDx=0;exitDy=0;entryX=0;entryY=1;entryDx=0;entryDy=0;" edge="1" parent="1" source="7Ni8dyz0HGYUbt5gnj2a-6" target="7Ni8dyz0HGYUbt5gnj2a-5">
          <mxGeometry relative="1" as="geometry" />
        </mxCell>
        <mxCell id="7Ni8dyz0HGYUbt5gnj2a-6" value="JSP" style="whiteSpace=wrap;html=1;aspect=fixed;" vertex="1" parent="1">
          <mxGeometry x="10" y="410" width="80" height="80" as="geometry" />
        </mxCell>
        <mxCell id="7Ni8dyz0HGYUbt5gnj2a-28" style="edgeStyle=orthogonalEdgeStyle;rounded=0;orthogonalLoop=1;jettySize=auto;html=1;exitX=0.25;exitY=0;exitDx=0;exitDy=0;entryX=0.5;entryY=1;entryDx=0;entryDy=0;" edge="1" parent="1" source="7Ni8dyz0HGYUbt5gnj2a-7" target="7Ni8dyz0HGYUbt5gnj2a-5">
          <mxGeometry relative="1" as="geometry" />
        </mxCell>
        <mxCell id="7Ni8dyz0HGYUbt5gnj2a-7" value="Internal&lt;br&gt;Resource&lt;br&gt;ViewResolver" style="whiteSpace=wrap;html=1;aspect=fixed;" vertex="1" parent="1">
          <mxGeometry x="340" y="390" width="80" height="80" as="geometry" />
        </mxCell>
        <mxCell id="7Ni8dyz0HGYUbt5gnj2a-13" value="" style="endArrow=classic;html=1;rounded=0;exitX=0;exitY=0.75;exitDx=0;exitDy=0;entryX=1;entryY=0.75;entryDx=0;entryDy=0;" edge="1" parent="1" source="7Ni8dyz0HGYUbt5gnj2a-2" target="7Ni8dyz0HGYUbt5gnj2a-3">
          <mxGeometry relative="1" as="geometry">
            <mxPoint x="360" y="359" as="sourcePoint" />
            <mxPoint x="440" y="359" as="targetPoint" />
          </mxGeometry>
        </mxCell>
        <mxCell id="7Ni8dyz0HGYUbt5gnj2a-14" value="" style="shape=message;html=1;outlineConnect=0;" vertex="1" parent="7Ni8dyz0HGYUbt5gnj2a-13">
          <mxGeometry width="20" height="14" relative="1" as="geometry">
            <mxPoint x="-10" y="-7" as="offset" />
          </mxGeometry>
        </mxCell>
        <mxCell id="7Ni8dyz0HGYUbt5gnj2a-15" value="" style="endArrow=classic;html=1;rounded=0;exitX=0;exitY=0.75;exitDx=0;exitDy=0;entryX=0.875;entryY=0.75;entryDx=0;entryDy=0;entryPerimeter=0;" edge="1" parent="1" source="7Ni8dyz0HGYUbt5gnj2a-4" target="7Ni8dyz0HGYUbt5gnj2a-5">
          <mxGeometry relative="1" as="geometry">
            <mxPoint x="240" y="300" as="sourcePoint" />
            <mxPoint x="340" y="300" as="targetPoint" />
          </mxGeometry>
        </mxCell>
        <mxCell id="7Ni8dyz0HGYUbt5gnj2a-16" value="" style="shape=message;html=1;outlineConnect=0;" vertex="1" parent="7Ni8dyz0HGYUbt5gnj2a-15">
          <mxGeometry width="20" height="14" relative="1" as="geometry">
            <mxPoint x="-25" as="offset" />
          </mxGeometry>
        </mxCell>
        <mxCell id="7Ni8dyz0HGYUbt5gnj2a-17" value="" style="endArrow=classic;html=1;rounded=0;exitX=0;exitY=0.75;exitDx=0;exitDy=0;entryX=1;entryY=0.75;entryDx=0;entryDy=0;" edge="1" parent="1" source="7Ni8dyz0HGYUbt5gnj2a-3" target="7Ni8dyz0HGYUbt5gnj2a-4">
          <mxGeometry relative="1" as="geometry">
            <mxPoint x="290" y="360" as="sourcePoint" />
            <mxPoint x="390" y="360" as="targetPoint" />
          </mxGeometry>
        </mxCell>
        <mxCell id="7Ni8dyz0HGYUbt5gnj2a-18" value="" style="shape=message;html=1;outlineConnect=0;" vertex="1" parent="7Ni8dyz0HGYUbt5gnj2a-17">
          <mxGeometry width="20" height="14" relative="1" as="geometry">
            <mxPoint x="-10" y="-7" as="offset" />
          </mxGeometry>
        </mxCell>
        <mxCell id="7Ni8dyz0HGYUbt5gnj2a-20" value="" style="endArrow=classic;html=1;rounded=0;exitX=0;exitY=0;exitDx=0;exitDy=52.5;exitPerimeter=0;entryX=0.988;entryY=0.675;entryDx=0;entryDy=0;entryPerimeter=0;" edge="1" parent="1" source="7Ni8dyz0HGYUbt5gnj2a-1" target="7Ni8dyz0HGYUbt5gnj2a-2">
          <mxGeometry relative="1" as="geometry">
            <mxPoint x="570" y="350" as="sourcePoint" />
            <mxPoint x="670" y="350" as="targetPoint" />
          </mxGeometry>
        </mxCell>
        <mxCell id="7Ni8dyz0HGYUbt5gnj2a-21" value="" style="shape=message;html=1;outlineConnect=0;" vertex="1" parent="7Ni8dyz0HGYUbt5gnj2a-20">
          <mxGeometry width="20" height="14" relative="1" as="geometry">
            <mxPoint x="-10" y="-7" as="offset" />
          </mxGeometry>
        </mxCell>
        <mxCell id="7Ni8dyz0HGYUbt5gnj2a-22" value="ModelAndView&lt;br&gt;" style="text;html=1;strokeColor=none;fillColor=none;align=center;verticalAlign=middle;whiteSpace=wrap;rounded=0;" vertex="1" parent="1">
          <mxGeometry x="220" y="307" width="60" height="30" as="geometry" />
        </mxCell>
        <mxCell id="7Ni8dyz0HGYUbt5gnj2a-27" value="prefix+ViewName+sufix" style="text;html=1;strokeColor=none;fillColor=none;align=center;verticalAlign=middle;whiteSpace=wrap;rounded=0;" vertex="1" parent="1">
          <mxGeometry x="470" y="415" width="60" height="30" as="geometry" />
        </mxCell>
        <mxCell id="7Ni8dyz0HGYUbt5gnj2a-32" value="" style="edgeStyle=orthogonalEdgeStyle;rounded=0;orthogonalLoop=1;jettySize=auto;html=1;exitX=0.25;exitY=1;exitDx=0;exitDy=0;entryX=0.25;entryY=0;entryDx=0;entryDy=0;endArrow=none;" edge="1" parent="1" source="7Ni8dyz0HGYUbt5gnj2a-5" target="7Ni8dyz0HGYUbt5gnj2a-31">
          <mxGeometry relative="1" as="geometry">
            <mxPoint x="30" y="320" as="sourcePoint" />
            <mxPoint x="30" y="400" as="targetPoint" />
          </mxGeometry>
        </mxCell>
        <mxCell id="7Ni8dyz0HGYUbt5gnj2a-31" value="model" style="text;html=1;strokeColor=none;fillColor=none;align=center;verticalAlign=middle;whiteSpace=wrap;rounded=0;" vertex="1" parent="1">
          <mxGeometry x="130" y="360" width="60" height="30" as="geometry" />
        </mxCell>
        <mxCell id="7Ni8dyz0HGYUbt5gnj2a-33" value="" style="edgeStyle=orthogonalEdgeStyle;rounded=0;orthogonalLoop=1;jettySize=auto;html=1;exitX=0.75;exitY=1;exitDx=0;exitDy=0;endArrow=none;" edge="1" parent="1" source="7Ni8dyz0HGYUbt5gnj2a-5" target="7Ni8dyz0HGYUbt5gnj2a-26">
          <mxGeometry relative="1" as="geometry">
            <mxPoint x="70" y="320" as="sourcePoint" />
            <mxPoint x="160" y="400" as="targetPoint" />
          </mxGeometry>
        </mxCell>
        <mxCell id="7Ni8dyz0HGYUbt5gnj2a-26" value="view" style="text;html=1;strokeColor=none;fillColor=none;align=center;verticalAlign=middle;whiteSpace=wrap;rounded=0;" vertex="1" parent="1">
          <mxGeometry x="384" y="350" width="60" height="30" as="geometry" />
        </mxCell>
        <mxCell id="7Ni8dyz0HGYUbt5gnj2a-37" value="" style="endArrow=classic;html=1;rounded=0;exitX=0;exitY=0.5;exitDx=0;exitDy=0;" edge="1" parent="1" source="7Ni8dyz0HGYUbt5gnj2a-5">
          <mxGeometry width="50" height="50" relative="1" as="geometry">
            <mxPoint x="10" y="360" as="sourcePoint" />
            <mxPoint x="-70" y="280" as="targetPoint" />
          </mxGeometry>
        </mxCell>
        <mxCell id="7Ni8dyz0HGYUbt5gnj2a-38" value="" style="endArrow=classic;html=1;rounded=0;entryX=0;entryY=0.25;entryDx=0;entryDy=0;" edge="1" parent="1" target="7Ni8dyz0HGYUbt5gnj2a-5">
          <mxGeometry width="50" height="50" relative="1" as="geometry">
            <mxPoint x="-70" y="260" as="sourcePoint" />
            <mxPoint x="110" y="270" as="targetPoint" />
          </mxGeometry>
        </mxCell>
        <mxCell id="7Ni8dyz0HGYUbt5gnj2a-39" value="URL(ip,port),Method, Parameter" style="text;html=1;strokeColor=none;fillColor=none;align=center;verticalAlign=middle;whiteSpace=wrap;rounded=0;" vertex="1" parent="1">
          <mxGeometry x="20" y="160" width="60" height="30" as="geometry" />
        </mxCell>
        <mxCell id="7Ni8dyz0HGYUbt5gnj2a-40" value="Request" style="ellipse;whiteSpace=wrap;html=1;aspect=fixed;" vertex="1" parent="1">
          <mxGeometry x="-30" y="230" width="50" height="50" as="geometry" />
        </mxCell>
        <mxCell id="7Ni8dyz0HGYUbt5gnj2a-41" value="Response" style="ellipse;whiteSpace=wrap;html=1;aspect=fixed;" vertex="1" parent="1">
          <mxGeometry x="40" y="230" width="50" height="50" as="geometry" />
        </mxCell>
        <mxCell id="7Ni8dyz0HGYUbt5gnj2a-43" value="Fowarding" style="text;html=1;strokeColor=none;fillColor=none;align=center;verticalAlign=middle;whiteSpace=wrap;rounded=0;" vertex="1" parent="1">
          <mxGeometry x="70" y="30" width="60" height="30" as="geometry" />
        </mxCell>
        <mxCell id="7Ni8dyz0HGYUbt5gnj2a-44" value="Redirect" style="text;html=1;strokeColor=none;fillColor=none;align=center;verticalAlign=middle;whiteSpace=wrap;rounded=0;" vertex="1" parent="1">
          <mxGeometry y="307" width="60" height="30" as="geometry" />
        </mxCell>
        <mxCell id="7Ni8dyz0HGYUbt5gnj2a-45" value="" style="endArrow=classic;html=1;rounded=0;exitX=0;exitY=0.75;exitDx=0;exitDy=0;" edge="1" parent="1" source="7Ni8dyz0HGYUbt5gnj2a-5">
          <mxGeometry width="50" height="50" relative="1" as="geometry">
            <mxPoint x="-50" y="390" as="sourcePoint" />
            <mxPoint x="-70" y="300" as="targetPoint" />
          </mxGeometry>
        </mxCell>
        <mxCell id="7Ni8dyz0HGYUbt5gnj2a-46" value="Redirect" style="text;html=1;strokeColor=none;fillColor=none;align=center;verticalAlign=middle;whiteSpace=wrap;rounded=0;" vertex="1" parent="1">
          <mxGeometry x="170" y="30" width="60" height="30" as="geometry" />
        </mxCell>
      </root>
    </mxGraphModel>
  </diagram>
</mxfile>
